<?xml version="1.0" encoding="UTF-8"?>
<svg id="Warstwa_2" data-name="Warstwa 2" xmlns="http://www.w3.org/2000/svg" width="75.133" height="71.854" viewBox="0 0 75.133 71.854">
  <defs>
    <style>
      .cls-1, .cls-2 {
        fill: #424242;
      }

      .cls-3 {
        fill: #4ecdc4;
      }

      .cls-2 {
        fill-rule: evenodd;
      }
    </style>
  </defs>
  <g id="Warstwa_1-2" data-name="Warstwa 1">
    <g>
      <path class="cls-1" d="M74.548,67.851c-.042-.22-.101-.436-.183-.659l-.877-2.071c-.113-.273-.237-.504-.368-.689-.133-.187-.399-.409-.916-.409h-1.247c-.523,0-.795.219-.931.404-.139.188-.263.42-.368.689l-.818,2.096c-.075.206-.134.421-.176.64-.043.222-.064.468-.064.73v2.711c0,.219.178.397.397.397h.127c.219,0,.397-.178.397-.397v-1.791h4.168v1.791c0,.219.178.397.397.397h.127c.219,0,.397-.178.397-.397v-2.711c0-.261-.022-.507-.064-.73ZM69.522,68.578c0-.201.017-.389.05-.557.034-.175.079-.341.127-.479l.813-2.084c.073-.184.154-.34.239-.463.021-.031.1-.05.207-.05h1.247c.067,0,.153.009.181.05.087.127.172.29.255.484l.869,2.05c.053.151.097.317.131.493.033.168.05.355.05.557h-4.168Z"/>
      <path class="cls-1" d="M13.24,67.632l-2.696-.549c-.114-.02-.198-.059-.258-.118-.017-.017-.062-.113-.062-.343v-1.043c0-.185.06-.327.19-.446.137-.126.328-.188.583-.188h2.825c.219,0,.397-.178.397-.397v-.127c0-.219-.178-.397-.397-.397h-2.825c-.49,0-.897.144-1.209.428-.323.294-.486.673-.486,1.127v1.043c0,.467.11.797.335,1.009.195.183.443.305.733.361l2.681.546c.159.034.277.094.36.183.011.011.102.121.102.548v.738c0,.229-.071.401-.223.542-.158.147-.376.218-.665.218h-3.168c-.219,0-.397.178-.397.397v.127c0,.219.178.397.397.397h3.168c.536,0,.975-.159,1.304-.472.335-.318.506-.726.506-1.211v-.738c0-.554-.118-.945-.361-1.194-.222-.228-.503-.377-.835-.443Z"/>
      <path class="cls-1" d="M22.653,64.023h-5.344c-.219,0-.397.178-.397.397v.127c0,.219.178.397.397.397h2.211v6.347c0,.219.178.397.397.397h.127c.219,0,.397-.178.397-.397v-6.347h2.211c.219,0,.397-.178.397-.397v-.127c0-.219-.178-.397-.397-.397Z"/>
      <path class="cls-1" d="M57.746,67.192l-.877-2.071c-.113-.273-.237-.504-.368-.689-.133-.187-.399-.409-.916-.409h-1.247c-.523,0-.795.219-.931.404-.139.188-.263.42-.368.689l-.818,2.096c-.075.206-.134.421-.176.64-.043.222-.064.468-.064.73v2.711c0,.219.178.397.397.397h.127c.219,0,.397-.178.397-.397v-1.791h4.168v1.791c0,.219.178.397.397.397h.127c.219,0,.397-.178.397-.397v-2.711c0-.261-.022-.507-.064-.73-.042-.22-.101-.436-.183-.659ZM52.903,68.578c0-.201.017-.389.05-.557.034-.175.079-.341.127-.479l.813-2.084c.073-.184.154-.34.239-.463.021-.031.1-.05.207-.05h1.247c.067,0,.153.009.181.05.087.127.172.29.255.484l.869,2.05c.053.151.097.317.131.493.033.168.05.355.05.557h-4.168Z"/>
      <path class="cls-1" d="M2.955,63.87c-1.104,0-1.852.189-2.288.578-.443.395-.667.912-.667,1.537v3.754c0,.625.225,1.142.667,1.537.436.389,1.184.578,2.288.578s1.853-.188,2.297-.575c.453-.395.683-.914.683-1.54v-3.754c0-.626-.23-1.145-.683-1.54-.444-.387-1.195-.575-2.297-.575ZM2.955,70.932c-1.046,0-1.481-.186-1.662-.342-.253-.218-.371-.489-.371-.851v-3.754c0-.362.118-.632.371-.851.181-.156.617-.342,1.662-.342s1.491.188,1.678.345c.26.218.38.488.38.848v3.754c0,.36-.121.629-.38.848-.187.158-.631.346-1.678.346Z"/>
      <path class="cls-1" d="M65.969,64.023h-5.344c-.219,0-.397.178-.397.397v.127c0,.219.178.397.397.397h2.211v6.347c0,.219.178.397.397.397h.127c.219,0,.397-.178.397-.397v-6.347h2.211c.219,0,.397-.178.397-.397v-.127c0-.219-.178-.397-.397-.397Z"/>
      <path class="cls-1" d="M48.693,64.652c-.18-.203-.43-.361-.743-.473-.296-.105-.658-.157-1.107-.157h-2.749c-.219,0-.397.178-.397.397v6.872c0,.219.178.397.397.397h.127c.219,0,.397-.178.397-.397v-2.109h2.224c.446,0,.806-.049,1.101-.148.313-.106.564-.26.745-.458.181-.198.306-.436.373-.708.058-.238.088-.499.088-.775v-.942c0-.276-.029-.538-.088-.78-.066-.275-.19-.517-.369-.719ZM44.62,64.945h2.224c.328,0,.59.033.78.099.166.057.292.133.372.224.085.096.141.207.173.339.039.163.059.346.059.543v.942c0,.197-.02.377-.059.536-.031.126-.086.232-.169.323-.08.088-.204.16-.37.214-.192.063-.457.095-.786.095h-2.224v-3.315Z"/>
      <path class="cls-1" d="M30.708,64.023h-4.288c-.219,0-.397.178-.397.397v6.872c0,.219.178.397.397.397h4.288c.219,0,.397-.178.397-.397v-.127c0-.219-.178-.397-.397-.397h-3.764v-2.501h2.733c.219,0,.397-.178.397-.397v-.127c0-.219-.178-.397-.397-.397h-2.733v-2.399h3.764c.219,0,.397-.178.397-.397v-.127c0-.219-.178-.397-.397-.397Z"/>
      <path class="cls-1" d="M37.083,63.87c-1.104,0-1.852.189-2.288.578-.443.395-.667.913-.667,1.537v3.754c0,.625.225,1.142.667,1.537.436.389,1.184.578,2.288.578s1.854-.188,2.297-.575c.454-.395.684-.914.684-1.54v-3.754c0-.626-.23-1.145-.684-1.54-.443-.387-1.195-.575-2.297-.575ZM37.083,64.792c1.048,0,1.491.188,1.678.345.259.218.38.488.38.848v3.754c0,.36-.121.629-.38.848-.187.158-.631.346-1.679.346s-1.481-.186-1.662-.342c-.25-.216-.371-.494-.371-.851v-3.754c0-.362.118-.632.371-.851.181-.156.617-.342,1.662-.342Z"/>
    </g>
    <path class="cls-2" d="M1.033,58.325v-8.877h1.42c.51,0,.878.115,1.104.344.226.229.346.607.361,1.132.007.703.013,1.372.017,2.008.004.636.004,1.271,0,1.903-.004.632-.009,1.304-.017,2.014-.015.525-.137.903-.366,1.132-.229.229-.599.344-1.11.344h-1.409ZM1.765,57.659h.677c.252,0,.435-.059.549-.178.115-.118.176-.307.183-.566.03-2.019.03-4.043,0-6.07-.007-.251-.068-.436-.183-.555-.115-.118-.294-.178-.538-.178h-.688v7.545ZM5.105,58.325v-6.658h.732v.632h.155c.059-.244.157-.412.294-.505.137-.092.32-.139.549-.139.141,0,.255.004.344.011v.588h-.333c-.318,0-.551.057-.699.172-.148.115-.252.301-.311.56v5.337h-.732ZM11.463,58.402c-.518,0-.88-.113-1.087-.338s-.318-.601-.333-1.126c-.015-.607-.015-1.213,0-1.82h.699c-.022.644-.022,1.287,0,1.931.007.252.065.435.172.549.107.115.29.172.549.172.244,0,.42-.057.527-.172.107-.115.161-.298.161-.549v-7.601h.732v7.49c0,.525-.109.901-.327,1.126-.218.226-.583.338-1.093.338ZM14.859,58.391c-.355,0-.618-.104-.788-.311-.17-.207-.27-.518-.3-.932-.007-.096-.013-.192-.017-.288-.004-.096-.002-.192.005-.289.022-.385.113-.717.272-.999.159-.281.442-.54.849-.777.155-.089.318-.176.488-.261.17-.085.34-.168.51-.25v-1.398c0-.244-.046-.423-.139-.538-.093-.115-.261-.172-.505-.172-.207,0-.363.048-.466.144-.104.096-.159.277-.166.544-.007.126-.011.296-.011.51s.004.403.011.566h-.721c-.007-.14-.013-.307-.017-.499-.004-.192-.002-.362.005-.51.022-.473.139-.816.35-1.026.211-.211.56-.316,1.049-.316.51,0,.86.113,1.049.338.189.226.29.59.305,1.093l-.011,5.304h-.732v-.599h-.122c-.081.215-.19.379-.327.494-.137.115-.327.172-.571.172ZM15.114,57.825c.363,0,.618-.211.766-.632v-2.297c-.126.059-.255.124-.388.194-.133.07-.285.168-.455.294-.214.155-.357.329-.427.522-.07.192-.109.414-.117.666-.007.074-.009.157-.005.25.004.092.005.187.005.283.022.229.087.407.194.533.107.126.25.189.427.189ZM17.799,58.325v-6.658h.732v.632h.155c.059-.244.157-.412.294-.505.137-.092.32-.139.549-.139.141,0,.255.004.344.011v.588h-.333c-.318,0-.551.057-.699.172-.148.115-.252.301-.311.56v5.337h-.732ZM22.526,56.039h.71c.007.17.013.346.017.527.004.181.002.346-.006.494-.022.473-.135.816-.338,1.026-.203.211-.549.316-1.038.316-.503,0-.865-.105-1.087-.316s-.34-.553-.355-1.026c-.015-.399-.024-.841-.028-1.326-.004-.485-.004-.967,0-1.448.004-.481.013-.925.028-1.332.022-.488.144-.838.366-1.049.222-.211.577-.316,1.065-.316.473,0,.817.104,1.032.311.214.207.333.551.355,1.032.007.17.013.457.017.86.004.403-.006.856-.028,1.359h-2.086c0,.311.002.623.006.938.004.314.009.657.017,1.026,0,.266.054.449.161.549.107.1.279.15.516.15s.405-.05.505-.15c.1-.1.157-.283.172-.549.007-.274.007-.632,0-1.076ZM21.86,52.178c-.244,0-.42.054-.527.161-.107.107-.161.283-.161.527-.007.326-.013.625-.017.899-.004.274-.006.544-.006.81h1.387v-1.037c0-.3-.004-.523-.011-.671-.015-.244-.074-.42-.178-.527-.104-.107-.266-.161-.488-.161ZM24.279,58.325v-6.658h.732v.588h.144c.111-.222.239-.388.383-.499.144-.111.346-.166.605-.166.266,0,.479.055.638.166.159.111.272.292.338.544h.144c.111-.229.248-.405.411-.527.163-.122.374-.183.632-.183.348,0,.607.102.777.305.17.203.259.542.266,1.015l.011,5.415h-.732l-.011-5.47c-.007-.244-.054-.42-.139-.527-.085-.107-.228-.161-.427-.161-.414,0-.699.229-.854.688v5.47h-.732l-.011-5.47c0-.244-.044-.42-.133-.527-.089-.107-.233-.161-.433-.161-.444,0-.736.226-.877.677v5.481h-.732ZM31.336,58.391c-.355,0-.618-.104-.788-.311-.17-.207-.27-.518-.3-.932-.007-.096-.013-.192-.017-.288-.004-.096-.002-.192.005-.289.022-.385.113-.717.272-.999.159-.281.442-.54.849-.777.155-.089.318-.176.488-.261.17-.085.34-.168.51-.25v-1.398c0-.244-.046-.423-.139-.538-.093-.115-.261-.172-.505-.172-.207,0-.363.048-.466.144-.104.096-.159.277-.166.544-.007.126-.011.296-.011.51s.004.403.011.566h-.721c-.007-.14-.013-.307-.017-.499-.004-.192-.002-.362.005-.51.022-.473.139-.816.35-1.026.211-.211.56-.316,1.049-.316.51,0,.86.113,1.049.338.189.226.29.59.305,1.093l-.011,5.304h-.732v-.599h-.122c-.081.215-.19.379-.327.494-.137.115-.327.172-.571.172ZM31.592,57.825c.363,0,.618-.211.766-.632v-2.297c-.126.059-.255.124-.388.194-.133.07-.285.168-.455.294-.214.155-.357.329-.427.522-.07.192-.109.414-.117.666-.007.074-.009.157-.005.25.004.092.005.187.005.283.022.229.087.407.194.533.107.126.25.189.427.189ZM36.574,58.325v-8.877h1.343c.503,0,.869.111,1.099.333s.351.588.366,1.099c.022.496.033.941.033,1.337s-.011.797-.033,1.204c-.015.51-.137.877-.366,1.099s-.596.333-1.099.333h-.61v3.473h-.732ZM37.306,54.197h.61c.252,0,.435-.061.549-.183.115-.122.176-.309.183-.56.03-.865.03-1.735,0-2.608-.007-.251-.068-.436-.183-.555-.115-.118-.298-.178-.549-.178h-.61v4.083ZM41.09,58.391c-.355,0-.618-.104-.788-.311-.17-.207-.27-.518-.3-.932-.007-.096-.013-.192-.017-.288-.004-.096-.002-.192.005-.289.022-.385.113-.717.272-.999.159-.281.442-.54.849-.777.155-.089.318-.176.488-.261.17-.085.34-.168.51-.25v-1.398c0-.244-.046-.423-.139-.538-.093-.115-.261-.172-.505-.172-.207,0-.363.048-.466.144-.104.096-.159.277-.166.544-.007.126-.011.296-.011.51s.004.403.011.566h-.721c-.007-.14-.013-.307-.017-.499-.004-.192-.002-.362.005-.51.022-.473.139-.816.35-1.026.211-.211.56-.316,1.049-.316.51,0,.86.113,1.049.338.189.226.29.59.305,1.093l-.011,5.304h-.732v-.599h-.122c-.081.215-.19.379-.327.494-.137.115-.327.172-.572.172ZM41.345,57.825c.363,0,.618-.211.766-.632v-2.297c-.126.059-.255.124-.388.194-.133.07-.285.168-.455.294-.214.155-.357.329-.427.522-.07.192-.109.414-.117.666-.007.074-.009.157-.005.25.004.092.005.187.005.283.022.229.087.407.194.533.107.126.25.189.427.189ZM46.05,49.448h.732v8.877h-.732v-.588h-.144c-.111.215-.239.379-.383.494-.144.115-.342.172-.594.172-.355,0-.618-.102-.788-.305-.17-.203-.263-.542-.277-1.015-.015-.636-.022-1.315-.022-2.036s.007-1.433.022-2.136c.015-.473.111-.812.288-1.015.178-.203.44-.305.788-.305.259,0,.459.055.599.166.141.111.266.277.377.499h.133v-2.807ZM45.173,57.825c.436,0,.729-.226.877-.677v-4.305c-.074-.237-.187-.409-.338-.516-.152-.107-.331-.161-.538-.161-.192,0-.333.054-.422.161-.089.107-.137.283-.144.527-.037,1.531-.037,2.959,0,4.283.007.244.054.42.139.527.085.107.227.161.427.161ZM49.057,58.402c-.355,0-.623-.102-.804-.305-.181-.203-.272-.542-.272-1.015v-5.415h.743v5.47c0,.244.044.42.133.527.089.107.233.161.433.161.192,0,.368-.059.527-.178.159-.118.275-.285.349-.499v-5.481h.732v6.658h-.732v-.588h-.144c-.214.444-.536.666-.965.666ZM53.307,58.402c-.481,0-.817-.105-1.01-.316-.192-.211-.296-.557-.311-1.038-.015-.318-.011-.655.011-1.01h.655c-.007.222-.011.422-.011.599v.477c.007.266.061.449.161.549.1.1.268.15.505.15.252,0,.429-.05.533-.15.104-.1.159-.283.166-.549.007-.133.011-.27.011-.411v-.388c-.007-.274-.041-.483-.1-.627-.059-.144-.185-.25-.377-.316l-.522-.178c-.385-.126-.653-.303-.804-.533-.152-.229-.231-.588-.239-1.076-.007-.111-.009-.216-.005-.316.004-.1.005-.205.005-.316.007-.488.111-.838.311-1.049.2-.211.555-.316,1.065-.316.481,0,.817.104,1.01.311.192.207.296.551.311,1.032v.483c0,.181-.004.357-.011.527h-.688c.015-.185.02-.377.017-.577-.004-.2-.006-.366-.006-.499-.007-.266-.055-.448-.144-.544-.089-.096-.252-.144-.488-.144-.244,0-.412.048-.505.144-.093.096-.142.277-.15.544,0,.126-.002.24-.005.344-.004.104-.006.211-.006.322.007.281.035.507.083.677.048.17.183.292.405.366l.488.144c.355.111.62.283.793.516.174.233.261.582.261,1.049,0,.126-.002.257-.005.394-.004.137-.009.268-.017.394-.015.473-.124.814-.327,1.021-.203.207-.557.311-1.06.311ZM55.515,58.325v-.488l1.92-5.592-1.875.011v-.577l2.674-.011v.499l-1.931,5.581h1.853v.577h-2.641ZM59.72,58.325l-.91-6.658h.755l.355,3.251.288,2.83h.211l.311-2.83.333-3.251h.766l-.999,7.568c-.074.473-.214.816-.422,1.026-.207.211-.558.316-1.054.316-.229,0-.451-.018-.666-.055v-.577c.081.015.183.024.305.028.122.004.239.005.349.005.274,0,.457-.05.549-.15.092-.1.157-.283.194-.549l.133-.954h-.499ZM62.705,58.325v-6.658h.732v.588h.166c.096-.207.22-.37.372-.488.152-.118.349-.178.594-.178.348,0,.61.102.788.305.178.203.266.542.266,1.015v5.415h-.732v-5.47c-.007-.244-.055-.42-.144-.527-.089-.107-.233-.161-.433-.161-.192,0-.368.059-.527.178-.159.118-.276.285-.35.499v5.481h-.732ZM63.959,51.112l.743-1.254h.522l-.755,1.254h-.51ZM67.942,58.402c-.481,0-.817-.105-1.01-.316-.192-.211-.296-.557-.311-1.038-.015-.318-.011-.655.011-1.01h.655c-.007.222-.011.422-.011.599v.477c.007.266.061.449.161.549.1.1.268.15.505.15.252,0,.429-.05.533-.15.104-.1.159-.283.166-.549.007-.133.011-.27.011-.411v-.388c-.007-.274-.041-.483-.1-.627-.059-.144-.185-.25-.377-.316l-.522-.178c-.385-.126-.653-.303-.804-.533-.152-.229-.231-.588-.239-1.076-.007-.111-.009-.216-.005-.316.004-.1.005-.205.005-.316.007-.488.111-.838.311-1.049.2-.211.555-.316,1.065-.316.481,0,.817.104,1.01.311.192.207.296.551.311,1.032v.483c0,.181-.004.357-.011.527h-.688c.015-.185.02-.377.017-.577-.004-.2-.006-.366-.006-.499-.007-.266-.055-.448-.144-.544-.089-.096-.252-.144-.488-.144-.244,0-.412.048-.505.144-.093.096-.142.277-.15.544,0,.126-.002.24-.005.344-.004.104-.006.211-.006.322.007.281.035.507.083.677.048.17.183.292.405.366l.488.144c.355.111.62.283.793.516.174.233.261.582.261,1.049,0,.126-.002.257-.005.394-.004.137-.009.268-.017.394-.015.473-.124.814-.327,1.021-.203.207-.557.311-1.06.311ZM70.339,58.325v-8.877h.699v3.395l-.078,1.82h.166l.444-1.243.655-1.753h.766l-1.132,2.763,1.398,3.895h-.777l-1.076-3.096-.355.777v2.319h-.71ZM73.968,50.336v-.888h1.165v.888h-1.165ZM74.201,58.325v-6.658h.732v6.658h-.732Z"/>
    <path class="cls-3" d="M39.984,44.188c-.014-.467.047-.896.135-.954.127-.083.212.384.196.839-.01.294-.074.582-.155.714-.109.179-.159.009-.177-.599h0ZM37.01,43.236c.133-.091.411-.171.619-.178.625-.021,1.989-.717,3.13-1.598,1.165-.899,1.769-1.907,1.939-3.234.185-1.454-.553-2.881-1.654-3.198-.282-.081-.335-.238-.357-1.065-.031-1.14.034-1.166,1.252-.51,1.12.603,2.138,1.815,2.388,2.844.221.912.095,2.413-.286,3.4-.506,1.31-2.298,2.631-4.577,3.375-.972.317-2.864.444-2.455.165h0ZM39.817,40.501c-.061-.471-.197-2.547-.301-4.615-.104-2.067-.266-4.884-.36-6.26l-.17-2.501.704.032.704.032v1.391c.002.765-.037,2.496-.086,3.848-.049,1.351-.098,3.911-.108,5.689-.018,3.175-.163,4.075-.383,2.383h0ZM36.853,34.491c-2.695-.511-4.139-1.768-4.524-3.939-.168-.943.317-2.603,1.024-3.509,1.046-1.341,3.037-2.172,5.856-2.444,2.397-.231,4.016-.787,4.923-1.69.434-.433.807-1.308.788-1.848-.021-.567-.649-1.747-1.163-2.182-.484-.41-2.534-1.181-2.88-1.172-.141.004-.028-2.11-.028-2.11l.913.082c2.822.255,5.316,1.912,5.923,3.936.758,2.529-.886,5.144-3.941,6.268-.656.241-1.934.493-3.386.667-1.79.214-2.53.376-3.18.695-1.542.757-2.368,2.434-1.751,3.553.494.896,1.401,1.392,3.386,1.853.136.032.215.382.232,1.034l.027.986-.614.003c-.337.002-1.059-.081-1.604-.184h0s0,0,0,0ZM39.042,24.005c-.114-.334-.124-4.412-.409-10.599l-.503-5.709,2.718-.073s-.339,3.305-.345,6.904c-.008,4.93-.024,7.372-.079,8.244l-.083,1.311-.613.067c-.4.044-.638-.007-.686-.145h0ZM36.325,17.783c-2.88-.319-5.131-1.424-6.344-3.114-.239-.333-.569-1.145-.734-1.804-.509-2.034-.143-3.463,1.279-5,1.924-2.079,3.815-2.592,10.934-2.965,1.708-.089,3.236-.208,3.396-.263.16-.055.754.106,1.319.358.565.252,1.156.448,1.433.559.733.294.72.653-.017.649-1.068-.006-1.306.376-.731.66l.748.187-.672.242c-.878.364-1.802.418-3.202.186-1.853-.306-6.173-.351-7.443-.076-1.804.39-3.597,1.634-4.183,2.901-.483,1.044.039,2.81,1.116,3.777.853.766,2.319,1.281,3.739,1.313l1.276.028.02,2.287-.788.086c-.404.019-.92.015-1.146-.01h0ZM45.981,5.686c-.002-.09-.11-.161-.24-.157-.13.004-.511-.068-.564.024-.053.091.287.311.472.306.185-.005.335-.083.332-.173ZM37.99,4.022c-.087-.405-.399-.525-.674-.888-.832-1.096-.444-2.042.913-2.786,1.334-.732,2.644-.21,3.357.648.545.656.479,1.346-.212,2.198-.326.402-.567.864-.535,1.026.052.264-.082.298-1.335.332l-1.393.037-.122-.567h0s0,0,0,0Z"/>
  </g>
</svg>