<?xml version="1.0" encoding="UTF-8"?>
<svg id="Warstwa_2" data-name="Warstwa 2" xmlns="http://www.w3.org/2000/svg" width="84.001" height="113.386" viewBox="0 0 84.001 113.386">
  <defs>
    <style>
      .cls-1 {
        fill: #39c1bc;
      }

      .cls-2 {
        fill: #2d4562;
      }
    </style>
  </defs>
  <g id="Warstwa_1-2" data-name="Warstwa 1">
    <g>
      <path class="cls-2" d="M55.169,5.967c3.185,3.893,3.763,8.08,2.844,13.004,1.725-.067,3.309,1.256,3.51,2.97.303,2.595-2.273,8.839-5.137,9.429-.293.06-1.068.002-1.154.129l-1.742,6.797c.381,4.453,3.505,6.02,7.364,7.084,6.783,1.869,14.77,1.963,19.674,7.75,4.06,4.791,3.473,11.573,3.406,17.487-.104,9.137-.709,18.386-.89,27.539-.011.581.16,1.155.137,1.636-.086,1.768-2.475,1.768-2.651.259-.223-1.905.094-4.01.134-5.91.123-5.882.22-11.74.367-17.622.164-6.585,1.784-17.03-3.074-22.201-7.359-7.834-29.818-2.504-26.674-18.616.204-1.043,1.38-5.853,1.825-6.478,1.073-1.508,2.046.276,3.321-.956.916-.886,2-3.63,2.278-4.892.128-.581.399-1.375-.244-1.77-.738-.453-1.044.969-2.242.736-1.081-.21-1.17-1.267-1.098-2.173.197-2.484.868-4.234.467-6.887-1.697-11.212-17.587-13.938-24.493-5.817-2.901,3.411-2.886,6.69-2.423,10.845.143,1.281.952,3.821-.948,4.035-1.144.129-1.4-1.305-2.291-.665-.667.479-.273,1.442-.093,2.099.373,1.364,1.165,3.253,2.105,4.31,1.224,1.376,1.586.163,2.732.54.563.185.88.664,1.075,1.188.562,1.504,1.213,4.379,1.538,6.01,1.395,6.995-2.454,10.447-8.74,12.145-8.268,2.234-18.632,1.902-20.825,12.26-.921,4.349-.409,8.592-.308,13.016.167,7.319.331,14.582.493,21.899.036,1.63.31,3.386.131,5.029-.147,1.345-2.472,1.481-2.645,0-.164-1.403-.078-3.518-.128-5.03-.217-6.589-.33-13.177-.493-19.761C-.013,63.635-2.071,52.531,11.621,48.121c4.453-1.434,13.523-2.291,16.764-5.125,3.673-3.211,1.319-7.653.432-11.558-2.526.268-4.21-2.37-5.128-4.37-1.264-2.752-2.5-6.982,1.459-8.066.255-.07.827.069.899-.228.047-.196-.334-2.059-.361-2.507C24.725.234,45.882-5.383,55.169,5.967Z"/>
      <path class="cls-2" d="M13.441,68.706c.374.244.502.666.633,1.061.648,1.945,1.168,4.343,1.688,6.363,2.538,9.865,5.936,24.147,3.291,34.008-.176.655-.646,2.54-1.123,2.913-.848.663-2.157.209-2.195-.925-.032-.968.865-3.286,1.083-4.464.858-4.634.438-9.743-.209-14.389-1.114-7.994-3.313-15.782-5.384-23.557.082-1.001,1.393-1.546,2.217-1.01Z"/>
      <path class="cls-2" d="M40.872,71.963c1.323-.221,3.981-.165,3.675,1.786-.261,1.658-4.548,1.565-4.969.203-.326-1.055.259-1.817,1.294-1.99Z"/>
      <path class="cls-2" d="M44.008,67.865c-.902.929-4.253.857-4.48-.785-.248-1.792,2.403-1.917,3.62-1.602,1.116.289,1.749,1.473.861,2.388Z"/>
      <path class="cls-2" d="M41.89,58.879c1.197-.029,2.729.379,2.385,1.893-.375,1.655-4.954,1.648-4.624-.593.141-.953,1.443-1.281,2.238-1.3Z"/>
      <path class="cls-2" d="M41.378,78.507c1.044-.14,2.895.093,2.935,1.413.048,1.597-1.884,1.726-3.082,1.563-2.071-.283-2.114-2.671.147-2.976Z"/>
      <path class="cls-2" d="M43.755,54.906c-.761.796-3.161.803-3.635-.366-.942-2.321,3.206-2.489,3.773-1.257.227.494.26,1.207-.138,1.623Z"/>
      <path class="cls-2" d="M41.248,85.045c1.027-.212,2.69.22,2.528,1.511-.223,1.773-3.341,1.828-3.703.101-.154-.733.487-1.47,1.175-1.612Z"/>
      <circle class="cls-2" cx="42.042" cy="92.925" r="1.414"/>
      <path class="cls-2" d="M40.946,46.687c1-1.202,3.395.167,2.226,1.787-1.115,1.546-3.424-.346-2.226-1.787Z"/>
      <path class="cls-2" d="M42.718,100.546c-.053.03-.05.187-.128.19-.098.003-.233-.101-.36-.095-.544.025-.712.188-1.227-.276-.644-.58-.375-1.93.412-2.197,1.79-.606,2.874,1.492,1.303,2.378Z"/>
      <g>
        <path class="cls-2" d="M69.669,79.814c-1.734,1.782-4.118,3.336-6.466,4.164-2.226.785-4.258.926-6.525,1.274-.353.054-.716-.054-1.059.073-.156.103-.94,3.141-1.046,3.583-.188.787-.16,2.492-.769,3.031-.833.737-2.35.121-2.323-1.053.051-2.226,1.306-5.237,1.848-7.422-3.758-5.614-4.607-12.991.034-18.384,3.178-3.693,12.013-7.554,16.643-9.523,1.277-.543,2.057-.996,2.751.564,3.128,7.03,2.459,17.993-3.087,23.693ZM56.631,82.625c3.564-.253,7.057-1.274,9.871-3.525,4.599-3.678,5.977-9.994,5.334-15.643-.067-.588-.889-4.903-1.112-5.058-.21-.145-.624.094-.844.177-3.151,1.19-7.787,3.573-10.645,5.267-6.466,3.833-8.282,9.569-4.755,16.464.049.095.048.403.262.179.067-.07.466-1.528.607-1.847,1.182-2.672,2.735-5.239,4.555-7.522.873-1.096,3.852-4.463,5-4.938,1.086-.449,2.167.159,1.889,1.385-.102.451-2.163,2.057-2.68,2.604-2.388,2.523-4.606,5.723-6.082,8.888-.538,1.153-1.012,2.354-1.401,3.567Z"/>
        <path class="cls-2" d="M66.733,83.42c.807-.746,2.386-.118,2.366,1.033-1.829,8.939-3.983,18.697-.777,27.557-.495,1.907-2.139,1.775-2.851-.045-2.704-6.912-1-20.017.759-27.223.093-.379.217-1.058.502-1.321Z"/>
        <path class="cls-1" d="M56.631,82.625c.389-1.212.863-2.413,1.401-3.567,1.476-3.165,3.694-6.365,6.082-8.888.517-.547,2.578-2.153,2.68-2.604.278-1.226-.803-1.834-1.889-1.385-1.149.475-4.127,3.842-5,4.938-1.82,2.283-3.373,4.85-4.555,7.522-.141.319-.54,1.777-.607,1.847-.214.224-.213-.084-.262-.179-3.527-6.895-1.712-12.632,4.755-16.464,2.858-1.694,7.494-4.077,10.645-5.267.22-.083.634-.322.844-.177.223.154,1.045,4.47,1.112,5.058.643,5.649-.735,11.965-5.334,15.643-2.814,2.251-6.307,3.272-9.871,3.525Z"/>
      </g>
    </g>
  </g>
</svg>