<?xml version="1.0" encoding="UTF-8"?>
<svg id="Warstwa_2" data-name="Warstwa 2" xmlns="http://www.w3.org/2000/svg" width="113.386" height="113.386" viewBox="0 0 113.386 113.386">
  <defs>
    <style>
      .cls-1 {
        fill: #39c1bc;
      }

      .cls-2 {
        fill: #8cd9db;
      }

      .cls-3 {
        fill: #2d4562;
      }
    </style>
  </defs>
  <g id="Warstwa_1-2" data-name="Warstwa 1">
    <g>
      <path class="cls-2" d="M46.644,86.11c-.053.098-.258-.084-.149-.287.053-.098.258.084.149.287Z"/>
      <path class="cls-3" d="M61.761,20.01c2.42.837,4.921,2.03,7.175,3.341,7.334,4.265,14.139,12.797,23.871,9.683,5.215-1.669,6.026-4.955,9.001-8.457,4.85-5.709,14.639-.407,10.64,7.369-2.363,4.594-8.48,10.088-13.278,12.206-7.903,3.489-16.758,2.244-23.95-2.132l-.386.315c-2.003,5.327-5.455,10.564-7.475,15.815-.108.28-.296.591-.209.902.03.106,1.457,1.306,1.696,1.496,6.215,4.957,13.465,10.28,15.381,18.325,1.765,7.413-.975,15.805-3.786,22.695-1.06,2.599-3.514,8.894-5.655,10.482-5.093,3.778-12.875-1.074-10.85-6.993,1.293-3.78,3.65-7.553,4.969-11.567,2.248-6.84,3.547-11.896-2.533-17.113-2.924-2.508-6.279-4.559-9.512-6.682l-.352.197c-.871,1.182-1.727,2.387-2.67,3.518-10.096,12.11-22.768,17.061-39.26,15.419-5.569-.555-16.875-1.895-14.164-9.815,1.236-3.61,4.52-4.705,8.188-3.991,5.061.985,8.847,1.861,14.337,1.175,13.523-1.689,20.916-10.274,24.049-22.411l9.671-22.304c-.796-.181-1.587-.403-2.396-.536-7.959-1.309-13.053,3.695-16.396,9.852-.678,1.249-.878,2.381-1.916,3.513-3.536,3.856-10.503,1.977-11.137-3.116-.536-4.305,4.635-11.372,7.643-14.472,7.922-8.164,18.318-10.517,29.303-6.715ZM82.494,41.815c4.469,1.706,11.515,1.013,15.794-.981,3.762-1.753,9.844-7.233,11.394-10.94,1.497-3.578-2.615-6.046-5.143-3.156-.804.919-1.469,2.215-2.241,3.204-2.709,3.471-6.651,6.423-11.317,6.978-11.577,1.377-18.488-8.75-28.048-12.912-15.303-6.663-28.923,1.182-34.504,15.149-.043.108-.287.101-.29.196-.016.487.05,1.461.226,1.93.688,1.841,2.995,2.384,4.586,1.204.928-.688,1.496-2.599,2.085-3.656,3.178-5.701,8.439-10.951,15.624-11.39,2.409-.147,6.363.406,8.576,1.378,1.691.742,1.708,1.417,1.138,2.95-2.916,7.843-7.65,15.739-10.351,23.605-.871,2.537-.971,5.041,1.173,7.027,6.416,4.561,19.133,10.139,22.114,17.476,2.494,6.138-1.085,15.047-3.531,20.786-.591,1.387-2.598,4.938-2.639,6.152-.109,3.22,4.587,4.474,6.49,1.543,4.733-10.529,12.311-25.081,3.808-35.575-3.045-3.758-7.153-6.948-10.901-9.967-.78-.629-2.71-1.898-3.082-2.693-.513-1.095.032-1.793.46-2.795,1.857-4.348,4.231-8.762,6.274-13.065.535-1.127,2.277-5.554,3.001-6.086.245-.18.549-.326.86-.347.787-.054,2.972,1.498,3.847,1.943,1.421.722,3.185,1.502,4.597,2.041ZM53.614,67.673c-1.72-.953-3.906-2.02-5.225-3.469-.416-.457-.686-1.034-1.134-1.443-3.626,8.064-11.412,14.348-20.482,16.217-5.523,1.138-10.753.867-16.267-.116-2.07-.369-4.895-1.808-6.37.375-1.206,1.785-.434,3.865,1.616,4.573,5.225,1.804,11.779,2.036,17.308,2.006,12.11-.066,23.34-7.384,29.84-16.753.181-.262.903-1.142.714-1.39Z"/>
      <path class="cls-3" d="M90.657,12.281c0,6.783-5.788,12.281-12.927,12.281s-12.927-5.498-12.927-12.281S70.59,0,77.729,0s12.927,5.498,12.927,12.281ZM87.185,12.312c0-4.951-4.225-8.965-9.437-8.965s-9.437,4.014-9.437,8.965,4.225,8.965,9.437,8.965,9.437-4.014,9.437-8.965Z"/>
      <path class="cls-1" d="M41.489,54.69c.314.002.112.563.081.727-1.624,8.74-9.887,15.472-18.991,16.551-4.26.505-12.121.005-16.047-1.727-.907-.4-1.256-1.536-.396-1.931.583-.268,3.787.819,4.702,1.011,4.898,1.025,10.206,1.202,15.054-.114,7.373-2.002,12.805-7.937,15.596-14.516Z"/>
      <path class="cls-1" d="M77.293,47.34c1.491.428,2.909,1.084,4.401,1.511,8.959,2.568,17.234.855,24.565-4.48l5.472-4.602c-3.405,5.723-9.512,10.378-16.381,11.678-6.259,1.185-13.267.051-18.056-4.108Z"/>
      <path class="cls-1" d="M46.342,86.112l-.981,1.012c-7.484,6.021-17.61,8.368-27.32,7.929-.913-.041-2.465-.135-3.326-.299-.755-.144-1.042-1.069-.54-1.657.603-.708,2.52-.095,3.411-.061,9.156.341,17.475-1.259,25.574-5.264,1.068-.528,2.062-1.229,3.182-1.66Z"/>
      <path class="cls-1" d="M87.612,76.022c.224.005.287.405.369.584,3.918,8.438,1.749,18.017-1.43,26.3-.257.67-1.512,4.002-1.887,4.259-.736.505-1.743-.128-1.597-1.081.182-1.186,1.763-4.221,2.27-5.629,2.85-7.907,4.279-16.147,2.274-24.433Z"/>
      <path class="cls-1" d="M24.042,30.043c.287-.036.09.27.045.403-.315.925-.989,1.923-1.377,2.873-2.067,5.066-2.971,10.65,1.864,14.593.722.589,2.202.918,1.569,2.074-.596,1.087-1.634.323-2.326-.201-1.991-1.508-3.682-3.825-4.229-6.216-1.144-5.01,1.469-9.612,4.454-13.525Z"/>
      <path class="cls-1" d="M49.68,35.232c-1.022.932-2.156,1.729-3.112,2.735-2.213,2.329-3.824,5.115-5.077,8.005-1.429,1.013-1.92-.21-1.441-1.514,1.363-3.714,5.582-8.119,9.631-9.226Z"/>
    </g>
  </g>
</svg>