<?xml version="1.0" encoding="UTF-8"?>
<svg id="Warstwa_2" data-name="Warstwa 2" xmlns="http://www.w3.org/2000/svg" width="114.07" height="113.386" viewBox="0 0 114.07 113.386">
  <defs>
    <style>
      .cls-1 {
        fill: #39c1bc;
      }

      .cls-2 {
        fill: #2d4562;
      }
    </style>
  </defs>
  <g id="Warstwa_1-2" data-name="Warstwa 1">
    <g>
      <path class="cls-2" d="M102.976,20.052c.335-1.688,2.973-1.719,3.517-.136.396,1.154.349,6.703-.005,7.918-.274.942-1.004,1.62-1.995,1.742-2.502-.359-5.721.122-8.112-.437-1.896-.443-1.975-3.422.097-3.664,1.071-.125,2.41.018,3.473.181l-1.605-2.219C75.69-3.826,32.642-2.711,12.722,26.951c-19.628,29.229-5.799,69.16,27.485,80.07,37.427,12.268,73.046-17.104,70.063-56.006-.091-1.19-.78-3.984-.634-4.906.279-1.764,3.012-2.049,3.612.327,1.203,4.767.925,13.527.198,18.426-7.36,49.59-71.032,65.996-101.564,26.357C-16.27,54.672,8.679,1.896,54.481.027c3.488-.142,8.262.287,11.733.914.281.051.49.314.72.323,9.532.38,23.428,8.769,30.441,15.67,1.987,1.955,3.697,4.201,5.6,6.232.125-.923-.171-2.253,0-3.114Z"/>
      <path class="cls-2" d="M47.934,29.459c2.038.898,4.351,2.608,6.226,4.268l3.174,3.495c3.498-5.123,9.513-9.191,15.831-9.615,19.595-1.314,30.124,20.197,18.672,35.576-1.138,1.529-2.502,2.991-3.803,4.383-8.507,9.104-18.015,17.542-26.602,26.601-2.832,2.348-5.752,2.142-8.458-.269-4.414-3.932-8.48-8.555-12.716-12.729-6.747-6.649-18.837-16.484-21.449-25.526-5.141-17.794,11.967-33.745,29.124-26.184ZM54.58,71.387c-2.079,4.527-4.049,9.178-4.956,14.111,1.891,1.747,3.703,4.115,5.663,5.731,1.042.859,1.886,1.565,3.197.701,8.867-9.057,18.649-17.738,27.237-27.033,3.29-3.56,5.9-6.913,6.878-11.805,2.57-12.855-8.361-24.531-21.442-21.442-5.685,1.342-9.586,5.373-12.674,10.102-2.886,1.615-3.502-1.936-4.796-3.371-16.644-18.455-40.953,2.028-29.184,21.177,3.275,5.329,9.892,10.932,14.421,15.472,2.331,2.336,4.807,5.176,7.2,7.391.159.147.383.198.537.353,1.07-4.781,2.921-9.346,5.223-13.654-.64-1.448-1.572-2.751-2.06-4.277-3.922-12.284,8.107-18.7,17.966-21.254,2.441-.632,8.036-1.878,10.373-1.569,1.007.133.897.786,1.163,1.472.064.165.313.084.353.394.107.822-.107,2.99-.193,3.924-.682,7.403-2.941,17.33-9.167,22.15-4.728,3.661-10.397,4.004-15.74,1.428ZM76.107,45.586c-3.723.449-7.443,1.222-10.99,2.443-4.47,1.538-9.897,4.233-11.817,8.824-1.256,3.003-.699,6.075.834,8.844l.458-.119c2.435-3.591,5.192-6.774,8.344-9.765,1.039-.363,2.481-2.449,3.469-2.411,1.522.057,2.069,2.077.992,3.136-.254.25-.634.273-.906.518-2.351,2.117-5.407,5.225-7.383,7.559-.491.58-2.236,2.692-2.481,3.219-.068.147-.17.396-.085.52.136.199,3.028,1.007,3.484,1.055,11.726,1.225,14.817-12.26,15.901-21.244.098-.812.122-1.753.179-2.578Z"/>
      <path class="cls-1" d="M76.107,45.586c-.057.825-.081,1.766-.179,2.578-1.084,8.983-4.175,22.469-15.901,21.244-.456-.048-3.348-.856-3.484-1.055-.085-.124.016-.373.085-.52.245-.527,1.989-2.638,2.481-3.219,1.976-2.334,5.032-5.442,7.383-7.559.272-.245.652-.268.906-.518,1.077-1.059.53-3.078-.992-3.136-.989-.037-2.431,2.048-3.469,2.411-3.153,2.992-5.909,6.174-8.344,9.765l-.458.119c-1.532-2.769-2.089-5.841-.834-8.844,1.92-4.591,7.346-7.286,11.817-8.824,3.547-1.221,7.267-1.994,10.99-2.443Z"/>
    </g>
  </g>
</svg>