<?xml version="1.0" encoding="UTF-8"?>
<svg id="Warstwa_2" data-name="Warstwa 2" xmlns="http://www.w3.org/2000/svg" width="213.565" height="52.456" viewBox="0 0 213.565 52.456">
  <defs>
    <style>
      .cls-1, .cls-2 {
        fill: #fff;
      }

      .cls-2 {
        fill-rule: evenodd;
      }
    </style>
  </defs>
  <g id="Warstwa_1-2" data-name="Warstwa 1">
    <g>
      <g>
        <path class="cls-1" d="M182.985,38.6c-.104-.541-.249-1.069-.45-1.618l-2.152-5.084c-.277-.669-.581-1.238-.902-1.691-.326-.458-.979-1.004-2.248-1.004h-3.061c-1.285,0-1.952.539-2.285.991-.34.462-.645,1.03-.904,1.692l-2.007,5.144c-.184.505-.329,1.033-.432,1.571-.104.546-.158,1.148-.158,1.792v6.653c0,.539.437.976.976.976h.312c.539,0,.976-.437.976-.976v-4.397h10.23v4.397c0,.539.437.976.976.976h.312c.539,0,.976-.437.976-.976v-6.653c0-.642-.053-1.245-.158-1.792ZM170.649,40.385c0-.494.042-.954.122-1.367.084-.429.193-.836.311-1.176l1.996-5.115c.18-.451.377-.834.585-1.138.052-.076.247-.123.508-.123h3.061c.165,0,.375.021.444.122.213.311.423.711.625,1.188l2.132,5.033c.13.371.238.777.323,1.209.081.413.122.873.122,1.367h-10.23Z"/>
        <path class="cls-1" d="M32.499,38.062l-6.618-1.349c-.279-.048-.486-.144-.633-.29-.042-.042-.152-.276-.152-.842v-2.561c0-.454.148-.802.466-1.094.336-.31.805-.46,1.432-.46h6.934c.539,0,.976-.437.976-.976v-.312c0-.539-.437-.976-.976-.976h-6.934c-1.204,0-2.203.354-2.968,1.051-.792.721-1.193,1.652-1.193,2.767v2.561c0,1.146.27,1.956.823,2.476.479.449,1.087.748,1.8.885l6.581,1.341c.389.083.679.23.885.449.026.027.25.296.25,1.346v1.812c0,.562-.173.984-.547,1.331-.389.361-.922.536-1.632.536h-7.777c-.539,0-.976.437-.976.976v.312c0,.539.437.976.976.976h7.777c1.315,0,2.393-.39,3.201-1.159.823-.782,1.241-1.781,1.241-2.972v-1.812c0-1.36-.29-2.319-.886-2.93-.545-.559-1.236-.924-2.05-1.086Z"/>
        <path class="cls-1" d="M55.605,29.203h-13.119c-.539,0-.976.437-.976.976v.312c0,.539.437.976.976.976h5.428v15.579c0,.539.437.976.976.976h.312c.539,0,.976-.437.976-.976v-15.579h5.428c.539,0,.976-.437.976-.976v-.312c0-.539-.437-.976-.976-.976Z"/>
        <path class="cls-1" d="M141.743,36.982l-2.152-5.084c-.277-.669-.581-1.238-.902-1.691-.326-.458-.979-1.004-2.248-1.004h-3.061c-1.285,0-1.952.539-2.285.991-.34.462-.645,1.03-.904,1.692l-2.007,5.144c-.184.505-.329,1.033-.432,1.571-.104.546-.158,1.148-.158,1.792v6.653c0,.539.437.976.976.976h.312c.539,0,.976-.437.976-.976v-4.397h10.23v4.397c0,.539.437.976.976.976h.312c.539,0,.976-.437.976-.976v-6.653c0-.642-.053-1.245-.158-1.792-.104-.541-.249-1.069-.45-1.618ZM129.857,40.385c0-.494.042-.954.122-1.367.084-.429.193-.836.311-1.176l1.996-5.115c.18-.451.377-.834.585-1.138.052-.076.247-.123.508-.123h3.061c.165,0,.375.021.444.122.213.311.423.711.625,1.188l2.133,5.033c.13.371.238.777.323,1.209.081.413.122.873.122,1.367h-10.23Z"/>
        <path class="cls-1" d="M7.254,28.828c-2.709,0-4.546.464-5.616,1.419-1.087.97-1.638,2.24-1.638,3.773v9.214c0,1.534.551,2.803,1.638,3.773,1.069.955,2.906,1.419,5.616,1.419s4.549-.462,5.639-1.412c1.113-.971,1.677-2.243,1.677-3.78v-9.214c0-1.538-.564-2.81-1.677-3.781-1.089-.949-2.934-1.411-5.639-1.411ZM7.254,46.163c-2.566,0-3.635-.457-4.08-.84-.622-.536-.911-1.2-.911-2.088v-9.214c0-.889.289-1.552.91-2.088.445-.383,1.514-.84,4.08-.84s3.66.461,4.119.848c.637.536.934,1.198.934,2.081v9.214c0,.883-.296,1.544-.933,2.081-.46.387-1.548.848-4.12.848Z"/>
        <path class="cls-1" d="M161.928,29.203h-13.119c-.539,0-.976.437-.976.976v.312c0,.539.437.976.976.976h5.428v15.579c0,.539.437.976.976.976h.312c.539,0,.976-.437.976-.976v-15.579h5.427c.539,0,.976-.437.976-.976v-.312c0-.539-.437-.976-.976-.976Z"/>
        <path class="cls-1" d="M119.521,30.748c-.442-.497-1.056-.887-1.823-1.161-.727-.259-1.615-.385-2.717-.385h-6.747c-.539,0-.976.437-.976.976v16.867c0,.539.437.976.976.976h.312c.539,0,.976-.437.976-.976v-5.178h5.458c1.095,0,1.979-.119,2.703-.364.769-.261,1.383-.639,1.828-1.125.443-.485.751-1.069.915-1.738.143-.583.216-1.224.216-1.903v-2.312c0-.678-.072-1.322-.215-1.914-.162-.675-.467-1.269-.907-1.764ZM109.523,31.466h5.458c.804,0,1.448.082,1.915.243.409.141.716.327.914.551.208.235.346.507.424.832.096.401.145.85.145,1.334v2.312c0,.482-.048.924-.144,1.315-.075.31-.211.569-.414.793-.196.216-.502.393-.909.526-.472.154-1.122.232-1.93.232h-5.458v-8.138Z"/>
        <path class="cls-1" d="M75.376,29.203h-10.526c-.539,0-.976.437-.976.976v16.867c0,.539.437.976.976.976h10.526c.539,0,.976-.437.976-.976v-.312c0-.539-.437-.976-.976-.976h-9.238v-6.139h6.708c.539,0,.976-.437.976-.976v-.312c0-.539-.437-.976-.976-.976h-6.708v-5.889h9.238c.539,0,.976-.437.976-.976v-.312c0-.539-.437-.976-.976-.976Z"/>
        <path class="cls-1" d="M91.025,28.828c-2.709,0-4.546.464-5.616,1.419-1.086.971-1.637,2.24-1.637,3.773v9.214c0,1.534.551,2.803,1.638,3.773,1.07.955,2.907,1.419,5.616,1.419s4.55-.462,5.639-1.412c1.113-.971,1.678-2.243,1.678-3.781v-9.214c0-1.538-.564-2.81-1.678-3.781-1.088-.95-2.933-1.412-5.639-1.412ZM91.025,31.092c2.572,0,3.66.461,4.12.848.637.536.933,1.197.933,2.081v9.214c0,.884-.296,1.545-.933,2.081-.46.387-1.548.848-4.12.848s-3.635-.457-4.079-.84c-.613-.529-.911-1.212-.911-2.088v-9.214c0-.888.29-1.552.911-2.088.445-.383,1.514-.84,4.08-.84Z"/>
      </g>
      <path class="cls-2" d="M1.747,26.946V5.156h3.486c1.253,0,2.156.282,2.71.844.554.563.849,1.489.885,2.778.018,1.725.032,3.368.041,4.93.009,1.562.009,3.119,0,4.671-.009,1.552-.023,3.2-.041,4.943-.036,1.289-.336,2.215-.899,2.778-.563.563-1.471.844-2.724.844H1.747ZM3.545,25.312h1.661c.617,0,1.067-.145,1.348-.436.281-.29.431-.753.449-1.389.073-4.957.073-9.923,0-14.898-.018-.617-.168-1.071-.449-1.362-.282-.29-.722-.436-1.321-.436h-1.689v18.521ZM11.743,26.946V10.604h1.798v1.552h.381c.145-.599.386-1.012.722-1.239.336-.227.785-.341,1.348-.341.345,0,.626.009.844.027v1.444h-.817c-.781,0-1.353.141-1.716.422-.363.281-.617.74-.763,1.375v13.101h-1.798ZM27.35,27.136c-1.271,0-2.161-.277-2.669-.831s-.781-1.475-.817-2.765c-.036-1.489-.036-2.978,0-4.467h1.716c-.054,1.58-.054,3.159,0,4.739.018.617.159,1.067.422,1.348.263.281.713.422,1.348.422.599,0,1.03-.141,1.294-.422.263-.281.395-.731.395-1.348V5.156h1.798v18.385c0,1.289-.268,2.211-.803,2.765-.536.554-1.43.831-2.683.831ZM35.684,27.109c-.872,0-1.516-.254-1.934-.763-.418-.508-.663-1.271-.735-2.288-.018-.236-.032-.472-.041-.708-.009-.236-.005-.472.013-.708.054-.944.277-1.761.667-2.451.39-.69,1.085-1.325,2.083-1.907.381-.218.781-.431,1.198-.64.418-.209.835-.413,1.253-.613v-3.432c0-.599-.113-1.039-.34-1.321-.227-.281-.64-.422-1.239-.422-.509,0-.89.118-1.144.354-.254.236-.39.681-.409,1.335-.018.309-.027.726-.027,1.253s.009.99.027,1.389h-1.77c-.018-.345-.032-.753-.041-1.226-.009-.472-.005-.89.013-1.253.054-1.162.341-2.002.858-2.519.517-.517,1.375-.776,2.574-.776,1.253,0,2.111.277,2.574.831.463.554.713,1.448.749,2.683l-.027,13.019h-1.798v-1.471h-.3c-.2.527-.468.931-.803,1.212-.336.281-.804.422-1.403.422ZM36.31,25.72c.89,0,1.516-.517,1.879-1.552v-5.638c-.309.145-.626.304-.953.477-.327.172-.699.413-1.117.722-.526.381-.876.808-1.048,1.28-.173.472-.268,1.017-.286,1.634-.018.182-.023.386-.013.613.009.227.013.459.013.694.054.563.213.999.477,1.307.263.309.613.463,1.048.463ZM42.902,26.946V10.604h1.798v1.552h.381c.145-.599.386-1.012.722-1.239.336-.227.785-.341,1.348-.341.345,0,.626.009.844.027v1.444h-.817c-.781,0-1.353.141-1.716.422-.363.281-.617.74-.763,1.375v13.101h-1.798ZM54.505,21.335h1.743c.018.418.032.849.041,1.294.009.445.004.849-.014,1.212-.054,1.162-.331,2.002-.831,2.52-.5.517-1.348.776-2.547.776-1.235,0-2.124-.259-2.669-.776s-.835-1.357-.872-2.52c-.036-.981-.059-2.065-.068-3.255-.009-1.189-.009-2.374,0-3.555.009-1.18.032-2.27.068-3.268.054-1.198.354-2.056.899-2.574.545-.517,1.416-.776,2.615-.776,1.162,0,2.007.254,2.533.763.526.509.817,1.353.872,2.533.018.418.032,1.121.041,2.111.009.99-.014,2.102-.068,3.336h-5.12c0,.763.004,1.53.014,2.302.009.772.022,1.611.041,2.519,0,.654.132,1.103.395,1.348.263.245.685.368,1.266.368s.994-.122,1.239-.368c.245-.245.386-.695.422-1.348.018-.672.018-1.552,0-2.642ZM52.87,11.857c-.599,0-1.03.132-1.294.395-.263.263-.395.694-.395,1.294-.018.799-.032,1.534-.041,2.206-.009.672-.014,1.335-.014,1.988h3.405v-2.546c0-.735-.009-1.285-.027-1.648-.036-.599-.182-1.03-.436-1.294-.254-.263-.654-.395-1.198-.395ZM58.808,26.946V10.604h1.798v1.444h.354c.272-.545.586-.953.94-1.226.354-.272.849-.409,1.484-.409.654,0,1.176.136,1.566.409.39.272.667.717.831,1.335h.354c.272-.563.608-.994,1.008-1.294.4-.3.917-.45,1.552-.45.853,0,1.489.25,1.907.749.418.499.635,1.33.654,2.492l.027,13.291h-1.798l-.027-13.428c-.018-.599-.132-1.03-.34-1.294-.209-.263-.558-.395-1.049-.395-1.017,0-1.716.563-2.097,1.689v13.428h-1.798l-.027-13.428c0-.599-.109-1.03-.327-1.294-.218-.263-.572-.395-1.062-.395-1.089,0-1.807.554-2.152,1.661v13.455h-1.798ZM76.13,27.109c-.872,0-1.516-.254-1.934-.763-.418-.508-.663-1.271-.735-2.288-.018-.236-.032-.472-.041-.708-.009-.236-.005-.472.013-.708.054-.944.277-1.761.667-2.451.39-.69,1.085-1.325,2.083-1.907.381-.218.781-.431,1.198-.64.418-.209.835-.413,1.253-.613v-3.432c0-.599-.113-1.039-.34-1.321-.227-.281-.64-.422-1.239-.422-.509,0-.89.118-1.144.354-.254.236-.39.681-.409,1.335-.018.309-.027.726-.027,1.253s.009.99.027,1.389h-1.77c-.018-.345-.032-.753-.041-1.226-.009-.472-.005-.89.013-1.253.054-1.162.341-2.002.858-2.519.517-.517,1.375-.776,2.574-.776,1.253,0,2.111.277,2.574.831.463.554.713,1.448.749,2.683l-.027,13.019h-1.798v-1.471h-.3c-.2.527-.468.931-.803,1.212-.336.281-.804.422-1.403.422ZM76.757,25.72c.89,0,1.516-.517,1.879-1.552v-5.638c-.309.145-.626.304-.953.477-.327.172-.699.413-1.117.722-.526.381-.876.808-1.048,1.28-.173.472-.268,1.017-.286,1.634-.018.182-.023.386-.013.613.009.227.013.459.013.694.054.563.213.999.477,1.307.263.309.613.463,1.048.463ZM88.986,26.946V5.156h3.296c1.235,0,2.133.272,2.696.817s.863,1.444.899,2.696c.054,1.217.082,2.311.082,3.282s-.027,1.957-.082,2.955c-.036,1.253-.336,2.152-.899,2.696s-1.462.817-2.696.817h-1.498v8.525h-1.798ZM90.784,16.814h1.498c.617,0,1.067-.15,1.348-.449.281-.3.431-.758.449-1.376.073-2.124.073-4.258,0-6.401-.018-.617-.168-1.071-.449-1.362-.282-.29-.731-.436-1.348-.436h-1.498v10.023ZM100.071,27.109c-.872,0-1.516-.254-1.934-.763-.418-.508-.663-1.271-.735-2.288-.018-.236-.032-.472-.041-.708-.009-.236-.005-.472.013-.708.054-.944.277-1.761.667-2.451.39-.69,1.085-1.325,2.083-1.907.381-.218.781-.431,1.198-.64.418-.209.835-.413,1.253-.613v-3.432c0-.599-.113-1.039-.34-1.321-.227-.281-.64-.422-1.239-.422-.508,0-.89.118-1.144.354-.254.236-.39.681-.409,1.335-.018.309-.027.726-.027,1.253s.009.99.027,1.389h-1.77c-.018-.345-.032-.753-.041-1.226-.009-.472-.005-.89.013-1.253.054-1.162.341-2.002.858-2.519.518-.517,1.375-.776,2.574-.776,1.253,0,2.111.277,2.574.831.463.554.713,1.448.749,2.683l-.027,13.019h-1.798v-1.471h-.3c-.2.527-.468.931-.803,1.212-.336.281-.804.422-1.403.422ZM100.698,25.72c.89,0,1.516-.517,1.879-1.552v-5.638c-.309.145-.626.304-.953.477-.327.172-.699.413-1.117.722-.527.381-.876.808-1.048,1.28-.173.472-.268,1.017-.286,1.634-.018.182-.023.386-.013.613.009.227.013.459.013.694.054.563.213.999.477,1.307.263.309.613.463,1.048.463ZM112.246,5.156h1.798v21.789h-1.798v-1.444h-.354c-.272.527-.585.931-.94,1.212-.354.281-.84.422-1.457.422-.872,0-1.516-.25-1.934-.749-.418-.499-.645-1.33-.681-2.492-.036-1.561-.054-3.227-.054-4.998s.018-3.518.054-5.243c.036-1.162.272-1.993.708-2.492.436-.499,1.08-.749,1.934-.749.635,0,1.126.136,1.471.409.345.272.654.681.926,1.226h.327v-6.891ZM110.095,25.72c1.071,0,1.789-.554,2.152-1.661v-10.568c-.182-.581-.459-1.003-.831-1.266-.372-.263-.813-.395-1.321-.395-.472,0-.817.132-1.035.395-.218.263-.336.694-.354,1.294-.091,3.759-.091,7.263,0,10.513.018.599.132,1.031.341,1.294.209.263.558.395,1.048.395ZM119.627,27.136c-.872,0-1.53-.25-1.975-.749-.445-.499-.667-1.33-.667-2.492v-13.291h1.825v13.428c0,.599.109,1.031.327,1.294.218.263.572.395,1.062.395.472,0,.903-.145,1.294-.436.39-.29.676-.699.858-1.226v-13.455h1.798v16.342h-1.798v-1.444h-.354c-.526,1.089-1.316,1.634-2.37,1.634ZM130.059,27.136c-1.18,0-2.007-.259-2.479-.776-.472-.517-.726-1.366-.763-2.547-.036-.781-.027-1.607.027-2.479h1.607c-.018.545-.027,1.035-.027,1.471v1.171c.018.654.15,1.103.395,1.348.245.245.658.368,1.239.368.617,0,1.053-.122,1.307-.368.254-.245.39-.695.409-1.348.018-.327.027-.663.027-1.008v-.953c-.018-.672-.1-1.185-.245-1.539-.145-.354-.454-.613-.926-.776l-1.28-.436c-.944-.309-1.602-.744-1.975-1.307-.372-.563-.567-1.444-.586-2.642-.018-.272-.023-.531-.013-.776.009-.245.013-.504.013-.776.018-1.198.272-2.056.763-2.574.49-.517,1.362-.776,2.615-.776,1.18,0,2.007.254,2.479.763.472.509.726,1.353.763,2.533v1.185c0,.445-.009.876-.027,1.294h-1.689c.036-.454.05-.926.041-1.416-.009-.49-.014-.899-.014-1.226-.018-.654-.136-1.098-.354-1.335-.218-.236-.617-.354-1.198-.354-.599,0-1.012.118-1.239.354-.227.236-.35.681-.368,1.335,0,.309-.004.59-.013.844-.009.254-.014.517-.014.79.018.69.086,1.244.204,1.661.118.418.449.717.994.899l1.198.354c.872.272,1.521.695,1.948,1.267.427.572.64,1.43.64,2.574,0,.309-.004.631-.013.967-.009.336-.023.658-.041.967-.036,1.162-.304,1.998-.803,2.506-.5.508-1.367.763-2.601.763ZM135.479,26.946v-1.198l4.712-13.727-4.603.027v-1.416l6.564-.027v1.226l-4.739,13.7h4.549v1.416h-6.482ZM145.802,26.946l-2.233-16.342h1.852l.872,7.98.708,6.945h.517l.763-6.945.817-7.98h1.879l-2.451,18.575c-.182,1.162-.526,2.002-1.035,2.52-.508.517-1.371.776-2.587.776-.563,0-1.108-.045-1.634-.136v-1.416c.2.036.45.059.749.068.3.009.585.013.858.013.672,0,1.121-.122,1.348-.368.227-.245.386-.695.477-1.348l.327-2.342h-1.226ZM153.128,26.946V10.604h1.798v1.444h.409c.236-.508.54-.908.913-1.198.372-.29.858-.436,1.457-.436.853,0,1.498.25,1.934.749.436.499.654,1.33.654,2.492v13.291h-1.798v-13.428c-.018-.599-.136-1.03-.354-1.294-.218-.263-.572-.395-1.062-.395-.472,0-.903.145-1.294.436-.391.291-.676.699-.858,1.226v13.455h-1.798ZM156.206,9.242l1.825-3.078h1.28l-1.852,3.078h-1.253ZM165.984,27.136c-1.18,0-2.007-.259-2.479-.776-.472-.517-.726-1.366-.763-2.547-.036-.781-.027-1.607.027-2.479h1.607c-.018.545-.027,1.035-.027,1.471v1.171c.018.654.15,1.103.395,1.348.245.245.658.368,1.239.368.617,0,1.053-.122,1.307-.368.254-.245.39-.695.409-1.348.018-.327.027-.663.027-1.008v-.953c-.018-.672-.1-1.185-.245-1.539-.145-.354-.454-.613-.926-.776l-1.28-.436c-.944-.309-1.602-.744-1.975-1.307-.372-.563-.567-1.444-.586-2.642-.018-.272-.023-.531-.013-.776.009-.245.013-.504.013-.776.018-1.198.272-2.056.763-2.574.49-.517,1.362-.776,2.615-.776,1.18,0,2.007.254,2.479.763.472.509.726,1.353.763,2.533v1.185c0,.445-.009.876-.027,1.294h-1.689c.036-.454.05-.926.041-1.416-.009-.49-.014-.899-.014-1.226-.018-.654-.136-1.098-.354-1.335-.218-.236-.617-.354-1.198-.354-.599,0-1.012.118-1.239.354-.227.236-.35.681-.368,1.335,0,.309-.004.59-.013.844-.009.254-.014.517-.014.79.018.69.086,1.244.204,1.661.118.418.449.717.994.899l1.198.354c.872.272,1.521.695,1.948,1.267.427.572.64,1.43.64,2.574,0,.309-.004.631-.013.967-.009.336-.023.658-.041.967-.036,1.162-.304,1.998-.803,2.506-.5.508-1.367.763-2.601.763ZM171.867,26.946V5.156h1.716v8.334l-.191,4.467h.409l1.089-3.051,1.607-4.303h1.879l-2.778,6.782,3.432,9.56h-1.907l-2.642-7.599-.872,1.907v5.692h-1.743ZM180.774,7.335v-2.179h2.86v2.179h-2.86ZM181.346,26.946V10.604h1.798v16.342h-1.798Z"/>
      <path class="cls-1" d="M204.014,51.676c-.016-.546.055-1.048.158-1.116.149-.098.248.449.23.982-.012.344-.087.681-.181.835-.127.209-.186.011-.207-.701h0ZM200.537,50.562c.155-.106.481-.2.724-.208.731-.024,2.326-.838,3.661-1.868,1.363-1.051,2.069-2.23,2.267-3.782.217-1.7-.647-3.37-1.934-3.74-.33-.095-.391-.278-.417-1.246-.036-1.333.039-1.364,1.464-.596,1.31.705,2.501,2.123,2.793,3.326.259,1.067.111,2.822-.335,3.976-.592,1.532-2.688,3.077-5.352,3.947-1.137.371-3.349.52-2.871.193h0ZM203.82,47.364c-.072-.551-.23-2.979-.352-5.397-.122-2.417-.311-5.712-.421-7.321l-.199-2.925.823.038.823.038.002,1.627c0,.895-.045,2.919-.103,4.5-.057,1.58-.114,4.574-.126,6.653-.021,3.713-.19,4.766-.447,2.787h0ZM200.354,40.335c-3.151-.598-4.84-2.068-5.291-4.606-.196-1.103.37-3.044,1.197-4.104,1.224-1.569,3.551-2.54,6.848-2.858,2.804-.27,4.697-.92,5.757-1.977.508-.506.944-1.53.921-2.161-.024-.663-.759-2.043-1.36-2.551-.566-.479-2.963-1.381-3.368-1.37-.165.004-.033-2.468-.033-2.468l1.068.096c3.301.298,6.217,2.236,6.926,4.603.886,2.957-1.036,6.015-4.609,7.33-.767.282-2.262.577-3.96.78-2.093.251-2.959.44-3.719.813-1.803.885-2.77,2.847-2.048,4.155.578,1.048,1.638,1.628,3.96,2.167.159.037.251.447.272,1.209l.031,1.153-.718.004c-.395.002-1.238-.095-1.875-.216h0s0,0,0,0ZM202.912,28.073c-.133-.39-.145-5.16-.478-12.395l-.588-6.676,3.178-.085s-.396,3.866-.403,8.074c-.009,5.765-.028,8.621-.093,9.641l-.097,1.534-.717.079c-.467.051-.747-.008-.802-.17h0ZM199.736,20.797c-3.368-.373-6-1.665-7.419-3.642-.279-.389-.665-1.339-.858-2.11-.595-2.378-.168-4.05,1.495-5.847,2.25-2.432,4.461-3.031,12.787-3.468,1.997-.105,3.784-.243,3.971-.308.187-.065.881.123,1.542.418.661.295,1.352.523,1.676.653.857.343.842.763-.02.759-1.249-.006-1.528.44-.854.772l.875.219-.786.283c-1.027.426-2.107.489-3.744.218-2.166-.358-7.219-.41-8.704-.089-2.11.457-4.206,1.911-4.891,3.393-.564,1.221.046,3.287,1.305,4.417.998.896,2.713,1.498,4.372,1.535l1.492.033.023,2.675-.921.101c-.473.023-1.076.017-1.34-.012h0ZM211.028,6.65c-.003-.105-.129-.188-.281-.184-.152.004-.597-.079-.66.028-.062.107.335.364.552.358.217-.006.391-.097.389-.202ZM201.683,4.703c-.102-.473-.466-.614-.788-1.038-.973-1.282-.519-2.388,1.068-3.258,1.56-.856,3.092-.246,3.926.758.638.768.56,1.574-.248,2.571-.381.471-.663,1.01-.625,1.199.061.309-.096.348-1.561.388l-1.629.044-.143-.663h0s0,0,0,0Z"/>
    </g>
  </g>
</svg>